<svg width="46" height="33" viewBox="0 0 46 33" fill="none" xmlns="http://www.w3.org/2000/svg">
<path d="M3.62714 31.1814C3.29903 30.7011 3.17361 30.157 3.22644 29.6345C3.30146 28.8927 2.86653 28.1763 2.152 27.8647C1.64878 27.6452 1.21538 27.2689 0.942073 26.7586C0.35764 25.6675 0.746753 24.3007 1.83108 23.6361C3.07002 22.8766 4.71111 23.2633 5.4374 24.4596C5.54755 24.6411 5.62707 24.8309 5.68331 25.0238L11.2932 21.967L13.2041 25.1146L7.59419 28.1713C7.7419 28.3144 7.87504 28.4748 7.98528 28.6564C8.71158 29.8528 8.23909 31.3911 6.92315 32.0236C5.77144 32.5772 4.32882 32.2086 3.62714 31.1814Z" fill="#C9AD80"/>
<path d="M11.2934 21.9671L5.68347 25.0238C5.62723 24.831 5.5478 24.6412 5.43757 24.4597C4.71127 23.2634 3.07018 22.8766 1.83124 23.6361C1.83124 23.6361 3.19758 28.4726 7.72319 26.0067C8.85459 25.3903 12.2488 23.5409 12.2488 23.5409L11.2934 21.9671Z" fill="#E6D8B3"/>
<path d="M13.6743 23.4633C13.4334 23.4018 13.2414 23.2532 13.1259 23.0629C12.6916 23.2994 11.2294 22.8561 11.2294 22.8561C11.2294 22.8561 10.5694 24.4559 9.9975 24.7675C10.574 25.717 11.532 26.4587 12.734 26.7659C13.6965 27.0119 14.6874 26.472 14.9471 25.5601C15.2067 24.6482 14.6369 23.7093 13.6743 23.4633Z" fill="#AD712C"/>
<path d="M13.0364 22.4126C13.296 21.5006 12.7261 20.5619 11.7635 20.3159C10.801 20.0699 9.81007 20.6098 9.55042 21.5217C9.22626 22.6604 9.42122 23.8179 9.99766 24.7675C10.9868 24.2286 12.097 23.6237 13.126 23.063C13.0105 22.8727 12.9714 22.6407 13.0364 22.4126Z" fill="#C98A2E"/>
<path d="M23.422 5.54111C26.2453 1.71756 31.3908 -0.215826 36.4208 1.06941C42.8276 2.70643 46.6349 8.9778 44.9067 15.0473C43.5499 19.8124 39.1984 23.0538 34.2902 23.4429L13.2042 25.1147C11.7591 24.7455 10.9036 23.3362 11.2933 21.9671L23.422 5.54111Z" fill="#AD712C"/>
<path d="M23.4221 5.54113L17.081 14.1289C15.1323 16.7681 17.3149 20.3633 20.7029 20.0947L30.478 19.3197C35.3864 18.9305 39.7379 15.6892 41.0946 10.9239C41.5276 9.40323 41.613 7.86988 41.3971 6.39994C41.0236 3.85704 39.0764 1.75725 36.4623 1.07999C36.4485 1.07642 36.4348 1.07293 36.421 1.06935C31.3909 -0.215887 26.2453 1.7175 23.4221 5.54113Z" fill="#C98A2E"/>
<path opacity="0.3" d="M34.502 7.95898C35.7632 3.56474 30.6086 0.0672716 26.6086 2.59247C25.3746 3.37153 24.2888 4.3672 23.4221 5.54111L21.1264 8.6502C19.632 10.6741 20.7235 13.4866 23.2442 14.1171C23.2822 14.1266 23.3204 14.1359 23.3586 14.145C28.1534 15.2836 33.0888 12.5947 34.4614 8.09593C34.4754 8.05022 34.4889 8.0046 34.502 7.95898Z" fill="#F6D445"/>
<path d="M44.2987 6.03402C42.6043 3.24479 39.8688 1.2485 36.5964 0.412928C31.4436 -0.902783 25.9275 0.993754 22.87 5.13197L12.0986 19.7099C12.0494 19.6832 11.9963 19.6613 11.9389 19.6467C11.2994 19.4833 10.6313 19.5656 10.0573 19.8782C9.48326 20.1907 9.07214 20.6962 8.89973 21.3015C8.53928 22.5667 8.72175 23.8906 9.41346 25.0293C9.62504 25.3775 9.87687 25.6952 10.1621 25.9786L7.25828 27.5598C7.0777 27.6581 6.95524 27.8301 6.92676 28.0256C6.89828 28.221 6.96683 28.4179 7.11256 28.5589C7.22846 28.6711 7.32558 28.7911 7.40123 28.9156C7.66114 29.3434 7.72215 29.8395 7.57328 30.3127C7.4245 30.7854 7.08534 31.1694 6.61842 31.3937C5.77344 31.7997 4.70789 31.5277 4.19299 30.7744C3.95886 30.4318 3.85653 30.0381 3.89723 29.6359C3.99992 28.6212 3.4118 27.6532 2.43376 27.2269C2.04609 27.058 1.73801 26.7763 1.54305 26.4125C1.11423 25.6123 1.40155 24.6037 2.1973 24.1162C2.63699 23.8469 3.15799 23.7626 3.66435 23.8783C4.17125 23.9943 4.59352 24.2939 4.85344 24.7217C4.92899 24.8462 4.98973 24.9859 5.03393 25.1373C5.08937 25.3274 5.23464 25.4826 5.42745 25.5576C5.62025 25.6325 5.83884 25.6188 6.01934 25.5205L7.59358 24.6633C7.91621 24.4876 8.02726 24.0976 7.84173 23.7922C7.6562 23.4868 7.24418 23.3816 6.92164 23.5573L6.00398 24.057C5.5623 23.3482 4.82693 22.8319 3.98105 22.6383C3.11164 22.4392 2.21814 22.5837 1.46507 23.0451C0.0980063 23.8825 -0.395595 25.6153 0.341124 26.9898C0.674983 27.6128 1.20371 28.0955 1.87017 28.3859C2.3211 28.5825 2.60294 29.0464 2.55559 29.5142C2.48569 30.2056 2.66053 30.8811 3.06132 31.4675C3.6684 32.3557 4.72092 32.8545 5.79096 32.8545C6.27998 32.8545 6.77259 32.7503 7.22801 32.5316C8.02798 32.1473 8.60917 31.4887 8.86469 30.6772C9.1132 29.8876 9.01176 29.0263 8.58662 28.3084L11.3031 26.8293C11.6923 27.0429 12.1128 27.2105 12.5584 27.3243C12.7733 27.3792 12.9913 27.4063 13.208 27.4063C13.6362 27.4063 14.0589 27.3003 14.44 27.0927C15.014 26.7802 15.4252 26.2747 15.5976 25.6694C15.613 25.6151 15.6198 25.5606 15.6201 25.5069L34.3464 24.0233C39.662 23.6021 44.1674 20.0417 45.5573 15.1636C46.4402 12.0655 45.9931 8.82324 44.2987 6.03402ZM44.2563 14.8314C43.0137 19.1923 38.986 22.3753 34.2341 22.7518L13.148 24.4226C12.7772 24.4519 12.5017 24.7604 12.5327 25.1115C12.5621 25.4445 12.8566 25.6962 13.2034 25.6962C13.2222 25.6962 13.2412 25.6955 13.2604 25.6939L14.1665 25.6222C14.0691 25.7716 13.9336 25.8968 13.7683 25.9868C13.5063 26.1295 13.2014 26.1672 12.9095 26.0925C11.9206 25.84 11.094 25.2365 10.5817 24.3933C10.0694 23.55 9.93419 22.57 10.2009 21.6338C10.334 21.1667 10.7756 20.8554 11.262 20.8424L10.7413 21.5472C10.5279 21.8359 10.6022 22.2337 10.9072 22.4355C11.2121 22.6374 11.6322 22.5672 11.8455 22.2785L23.9743 5.86336C26.7078 2.164 31.6394 0.468763 36.2456 1.64488C39.1704 2.39169 41.6156 4.17638 43.1306 6.67017C44.6455 9.16396 45.0452 12.0623 44.2563 14.8314Z" fill="black"/>
</svg>
